<svg xmlns="http://www.w3.org/2000/svg" viewBox="0 0 512 1024" data-orientation="side"><g data-anatomy-id="bone.humerus"><path d="M253 277L263 277L268 279L273 284L276 290L276 299L274 303L270 306L267 315L268 353L278 452L278 484L280 498L279 522L272 533L266 537L260 537L257 536L252 530L252 523L258 516L262 503L262 468L248 362L248 321L247 316L241 304L237 300L236 296L239 287L246 280L252 278Z"/></g><g data-anatomy-id="bone.radius"><path d="M253 533L269 535L271 538L270 541L267 543L262 556L256 599L253 636L243 672L234 721L229 725L225 724L223 726L220 726L218 721L213 717L222 707L233 676L239 652L246 611L244 560L251 549L253 543L252 534Z"/></g><g data-anatomy-id="bone.ulna"><path d="M271 518L277 518L282 522L286 529L285 538L274 580L262 610L242 673L234 703L231 724L228 727L225 727L224 723L222 721L217 720L216 716L222 708L225 701L231 674L241 645L246 619L257 588L261 560L260 550L258 544L255 541L254 533L257 533L264 537L267 536L272 529L270 519Z"/></g><g data-anatomy-id="muscle.brachialis"><path d="M249 376L252 377L253 383L262 391L266 400L269 412L271 432L270 458L268 465L268 491L263 512L260 517L256 531L257 540L261 549L262 564L259 565L253 556L248 519L248 477L254 440L252 407L248 387L249 377Z"/></g><g data-anatomy-id="muscle.bicepsBrachii"><path d="M246 274L257 276L269 284L266 285L248 278L245 286L247 309L251 322L253 377L258 406L259 477L251 507L252 541L255 548L255 559L253 561L253 564L251 566L247 566L248 547L246 535L245 504L238 481L231 449L228 414L230 383L234 367L238 359L243 333L242 321L235 300L234 289L235 286L240 282L241 278L245 275Z"/></g><g data-anatomy-id="muscle.tricepsBrachii"><path d="M270 309L276 312L279 321L287 329L289 333L296 363L302 375L307 415L305 440L300 472L294 493L291 511L284 527L284 530L281 532L279 537L275 536L273 533L274 529L272 520L265 506L265 424L260 349L266 344L263 329L263 317L267 314L267 311L269 310Z"/></g><g data-anatomy-id="muscle.flexorCarpiRadialis"><path d="M260 514L262 514L256 526L244 560L227 618L222 649L222 657L220 663L220 672L218 677L217 694L210 720L209 733L212 746L209 747L206 735L206 721L213 690L219 611L227 579L235 556L251 523L259 515Z"/></g><g data-anatomy-id="muscle.flexorCarpiUlnaris"><path d="M268 521L270 521L270 527L267 549L269 549L270 545L272 526L275 526L278 529L279 527L282 527L280 539L280 552L274 569L273 577L261 614L258 628L246 658L238 683L229 702L225 707L223 715L212 732L212 735L216 739L218 745L213 747L211 741L205 733L218 712L224 691L232 631L241 586L249 556L261 523L267 522Z"/></g><g data-anatomy-id="muscle.extensorCarpiRadialisLongus"><path d="M273 476L277 477L277 499L276 540L271 578L245 656L225 743L222 749L219 747L225 730L229 703L247 620L251 595L251 581L254 560L262 529L264 510L273 477Z"/></g><g data-anatomy-id="muscle.extensorCarpiUlnaris"><path d="M278 502L280 502L280 509L284 523L285 547L280 578L273 608L258 658L244 691L242 705L239 713L234 723L222 739L220 746L218 748L215 748L221 735L226 713L228 691L233 677L245 625L253 602L256 586L259 581L262 581L263 583L260 606L257 615L258 617L263 609L264 601L268 591L270 573L276 557L279 542L279 526L276 514L276 508L278 503Z"/></g><g data-anatomy-id="muscle.pronatorTeres"><path d="M263 507L265 508L253 528L249 547L250 550L255 543L258 543L260 546L256 551L246 574L252 607L252 621L249 630L245 615L240 608L236 597L234 568L244 526L248 519L262 508Z"/></g><g data-anatomy-id="muscle.supinator"><path d="M267 515L273 515L274 517L274 539L272 543L273 545L269 568L264 580L256 614L252 619L250 613L251 607L249 601L247 600L248 599L245 574L245 557L264 535L268 522L267 516Z"/></g></svg>