<svg xmlns="http://www.w3.org/2000/svg" viewBox="0 0 512 1024" data-orientation="back"><g data-anatomy-id="bone.humerus"><path d="M112 277L124 277L129 279L137 289L138 298L135 307L123 315L114 333L108 353L100 392L92 477L92 492L94 502L97 508L106 519L104 527L101 529L92 530L90 532L90 536L85 537L76 530L68 531L55 529L52 524L51 515L66 482L73 461L79 436L81 391L93 330L97 282L103 278L111 278Z"/><path d="M388 277L409 278L415 282L419 330L431 391L433 436L439 461L446 482L461 515L459 527L455 530L436 530L429 536L423 537L422 532L420 530L409 528L406 522L408 515L415 508L418 502L420 492L420 477L412 392L404 353L398 333L391 318L386 312L377 307L374 298L374 293L377 285L383 279L387 278Z"/></g><g data-anatomy-id="bone.radius"><path d="M53 533L68 534L70 536L70 539L67 544L67 562L61 579L58 605L55 614L48 652L45 685L45 712L47 719L45 720L45 723L39 723L34 725L26 724L24 726L20 726L18 721L21 709L27 696L32 673L39 619L53 551L53 542L51 539L52 534Z"/><path d="M448 533L461 534L461 539L459 542L459 551L473 619L480 673L485 696L491 709L494 721L493 725L488 726L486 724L478 725L473 723L467 723L467 720L465 719L467 712L466 668L459 624L454 605L451 579L445 562L446 552L442 536L444 534L447 534Z"/></g><g data-anatomy-id="bone.ulna"><path d="M73 518L84 518L87 520L90 528L89 535L87 537L89 542L81 553L73 587L67 673L62 701L61 720L58 726L54 727L52 722L46 721L46 715L52 702L57 675L59 597L65 561L65 549L66 543L70 539L71 535L70 524L72 519Z"/><path d="M428 518L439 518L441 520L441 535L442 539L446 543L447 561L453 597L455 675L460 702L466 715L466 721L460 722L458 727L455 727L451 720L450 701L447 689L443 654L441 602L439 587L431 553L423 542L425 537L423 535L422 528L425 520L427 519Z"/></g><g data-anatomy-id="muscle.brachialis"><path d="M91 376L94 376L96 380L98 401L106 435L107 469L105 482L98 501L81 532L82 547L81 555L77 565L73 565L71 563L65 546L62 521L57 499L56 474L59 447L65 419L74 399L80 389L88 381L90 377Z"/><path d="M418 376L421 376L432 389L443 409L450 430L454 454L456 474L455 499L450 521L447 546L441 563L439 565L435 565L433 561L430 547L431 532L414 501L406 478L406 435L414 401L417 377Z"/></g><g data-anatomy-id="muscle.bicepsBrachii"><path d="M119 274L126 274L132 276L143 285L132 296L126 306L122 314L118 329L118 350L120 355L122 378L118 415L112 444L101 470L82 503L76 536L65 565L61 566L61 550L65 541L69 524L69 504L64 470L64 445L67 423L71 406L78 386L86 369L98 350L102 340L102 305L104 287L110 278L118 275Z"/><path d="M386 274L393 274L399 276L405 281L408 287L410 305L410 340L414 350L431 379L443 413L448 445L448 470L443 504L443 524L447 541L451 550L451 566L447 565L440 549L433 524L430 503L407 462L398 436L394 415L390 378L392 355L394 350L394 329L390 314L386 306L380 296L369 285L380 276L385 275Z"/></g><g data-anatomy-id="muscle.tricepsBrachii"><path d="M130 309L134 309L141 312L145 317L148 326L135 339L130 351L127 367L126 394L123 408L121 431L112 467L109 492L104 508L90 530L88 536L77 536L75 531L71 527L67 507L63 501L63 497L67 486L62 458L62 437L65 421L66 404L71 384L74 380L81 360L90 342L99 315L103 315L106 317L108 321L109 328L106 344L111 348L129 310Z"/><path d="M378 309L382 309L384 311L401 348L406 344L403 328L404 321L406 317L409 315L413 315L420 337L443 390L450 437L449 469L445 481L449 501L445 507L441 527L437 531L435 536L424 536L422 530L412 516L404 496L401 482L400 467L391 431L389 408L386 394L386 380L383 355L377 339L364 326L364 323L369 314L377 310Z"/></g><g data-anatomy-id="muscle.flexorCarpiRadialis"><path d="M96 514L100 515L100 526L83 581L70 635L58 672L47 698L36 736L31 747L25 747L25 745L32 732L41 699L47 651L54 614L71 564L95 515Z"/><path d="M413 514L417 515L435 551L445 574L455 604L462 632L471 699L477 723L487 747L481 747L478 741L465 698L447 651L424 563L413 530L412 515Z"/></g><g data-anatomy-id="muscle.flexorCarpiUlnaris"><path d="M99 521L105 522L106 524L105 569L100 595L85 642L73 670L66 694L60 722L60 745L58 747L56 746L56 741L58 737L56 732L50 739L47 739L49 734L54 729L56 723L59 696L67 666L67 626L69 616L70 583L78 543L83 527L86 528L87 526L89 526L91 528L94 553L96 556L98 547L99 522Z"/><path d="M410 521L413 521L414 523L414 547L416 556L418 553L421 528L423 526L425 526L426 528L429 527L433 539L441 573L442 583L443 616L445 626L445 666L453 696L456 723L458 729L463 734L465 739L462 739L456 732L454 735L456 746L454 747L452 745L452 722L446 694L439 670L427 642L413 599L407 569L406 524L407 522L409 522Z"/></g><g data-anatomy-id="muscle.extensorCarpiRadialisLongus"><path d="M67 476L69 476L70 479L54 512L51 533L49 537L45 572L34 629L32 686L25 719L25 748L22 749L20 747L22 717L28 681L28 597L34 543L43 514L54 495L67 477Z"/><path d="M443 476L445 476L448 480L465 506L472 521L478 543L484 597L484 681L490 717L492 747L490 749L487 748L487 719L480 686L478 629L467 572L463 537L461 533L458 512L442 477Z"/></g><g data-anatomy-id="muscle.extensorCarpiUlnaris"><path d="M63 502L65 502L68 505L65 529L65 552L69 580L73 583L76 605L73 647L65 691L60 743L59 748L56 747L57 739L55 737L54 732L56 718L56 684L58 662L56 629L57 556L60 518L63 503Z"/><path d="M447 502L449 502L451 511L455 556L456 629L454 662L456 684L456 718L458 725L457 737L455 739L456 747L453 748L452 743L447 691L439 647L436 609L437 592L439 583L443 580L447 552L447 529L444 510L444 505L446 503Z"/></g><g data-anatomy-id="muscle.pronatorTeres"><path d="M93 507L97 508L97 515L90 532L76 558L47 602L42 613L39 630L37 597L39 587L45 571L59 548L92 508Z"/><path d="M416 507L421 508L432 524L450 544L462 561L467 571L473 587L475 597L474 630L472 628L469 610L461 595L444 571L429 546L415 515L415 508Z"/></g><g data-anatomy-id="muscle.supinator"><path d="M51 515L55 516L62 527L64 535L63 543L68 544L68 554L61 589L54 602L47 610L42 619L40 619L40 610L42 606L42 595L46 576L46 556L50 516Z"/><path d="M458 515L462 516L464 526L466 576L470 595L472 619L470 619L465 610L458 602L451 589L444 554L444 544L449 543L449 530L457 516Z"/></g></svg>